<svg width="72" height="63" viewBox="0 0 72 63" fill="none" xmlns="http://www.w3.org/2000/svg">
<path d="M20.3545 0.00395258C37.5673 -0.00131753 54.7811 -0.00131753 71.9961 0.00395258C72.0013 5.55745 72.0013 11.11 71.9961 16.6616C54.7828 16.6668 37.5689 16.6668 20.3545 16.6616C20.349 11.1081 20.349 5.55553 20.3545 0.00395258Z" fill="#02A6C2"/>
<path d="M0.0215997 22.9285C5.57488 22.8998 11.1291 22.8998 16.6843 22.9285C16.7131 28.4715 16.7131 34.0154 16.6843 39.5603C11.1294 39.5888 5.57512 39.5893 0.0215997 39.5617C-0.00719989 34.0178 -0.00719989 28.4734 0.0215997 22.9285Z" fill="#5FCADE"/>
<path d="M20.3673 22.9286C32.7912 22.9022 45.2143 22.9022 57.6365 22.9286C57.6629 28.4715 57.6629 34.0154 57.6365 39.5603C45.2128 39.5862 32.7898 39.5862 20.3673 39.5603C20.3414 34.0171 20.3414 28.4732 20.3673 22.9286Z" fill="#5FCADE"/>
<path d="M20.3828 45.8582C25.9268 45.7981 31.4697 45.7981 37.0117 45.8582C37.0693 51.3882 37.0702 56.9209 37.0142 62.4562C31.4703 62.5108 25.9275 62.5098 20.3857 62.4533C20.3281 56.9238 20.3272 51.3921 20.3828 45.8582Z" fill="#ABEBF4"/>
</svg>
