<svg width="72" height="81" viewBox="0 0 72 81" fill="none" xmlns="http://www.w3.org/2000/svg">
<path fill-rule="evenodd" clip-rule="evenodd" d="M20.4465 27.7074C20.3129 28.8296 20.1793 30.0052 20.0992 31.1809C18.0685 32.597 16.1715 34.0398 14.4081 35.4826C13.4996 36.2307 12.6179 36.9789 11.7896 37.7537C5.27021 31.1007 2.49146 25.1157 4.28162 22.043C5.85803 19.3177 11.1484 18.5429 18.5762 20.0124C18.8701 18.7299 19.164 17.5008 19.5114 16.3252C10.5071 14.5083 3.64037 15.7107 1.04864 20.1727C0.353951 21.3483 0.00660598 22.6843 0.00660598 24.1004V24.234C0.0600436 30.5663 6.28553 39.0362 16.6792 47.0251C17.7479 47.8534 18.8968 48.6817 20.0724 49.51C20.2862 52.1017 20.6068 54.5866 21.0076 56.9111C21.1946 57.9531 21.3817 58.9685 21.5954 59.957C12.5912 62.2816 6.04506 61.6938 4.2549 58.6211C2.67849 55.8958 4.65568 50.8994 9.62538 45.2083L7.03366 42.4829C0.888327 49.4298 -1.5698 56.0294 1.02192 60.5181C2.8388 63.671 6.76647 65.1672 12.0568 65.1672C17.3738 65.1672 24.0536 63.6443 31.3745 60.6785C31.5615 60.5983 31.7486 60.5181 31.9623 60.438C33.2448 59.9036 34.5273 59.3425 35.8366 58.728C35.89 58.7013 35.9434 58.6745 35.9969 58.6478C38.3214 59.7166 40.6192 60.6785 42.8903 61.5067C43.8789 61.8808 44.8675 62.2014 45.8294 62.5221C43.3445 71.4996 39.5505 76.8968 35.9969 76.8968C32.844 76.8968 29.5042 72.6752 27.0728 65.4611C25.8437 65.8886 24.6414 66.2627 23.439 66.5833C26.3781 75.2937 30.8401 80.6374 35.9969 80.6374C43.5049 80.6374 49.4899 69.3621 51.5472 52.93C51.6808 51.8078 51.7877 50.6322 51.8946 49.4833C54.0054 48.0137 55.9825 46.4908 57.8261 44.9411C57.933 44.8609 58.0399 44.7808 58.1468 44.6739C58.8415 44.0861 59.5094 43.4983 60.1774 42.8837C66.7235 49.51 69.5023 55.5217 67.7121 58.5944C66.2426 61.1327 61.4065 61.9877 54.7802 60.8922C54.326 60.8121 53.8985 60.7319 53.4443 60.6517C53.1504 61.9075 52.8564 63.1099 52.5091 64.2855C53.0702 64.3924 53.6313 64.4993 54.1657 64.5794C56.2765 64.9268 58.2269 65.1138 60.0171 65.1138C65.3876 65.1138 69.2084 63.5374 70.9718 60.4914C73.3231 56.4302 71.6131 50.5253 66.1357 43.899C63.3035 40.4523 59.6163 36.9789 55.3413 33.6657C54.2458 32.8107 53.0969 31.9824 51.948 31.1542C51.7343 28.5624 51.4136 26.0776 50.9861 23.7263C50.7991 22.6843 50.6121 21.669 50.3983 20.6804C51.9213 20.2796 53.3908 19.959 54.8069 19.7185C61.4332 18.623 66.2693 19.478 67.7388 22.0163C69.2885 24.6882 67.3915 29.5777 62.5821 35.162C63.5173 36.0704 64.3723 36.9789 65.1738 37.8606C65.5212 37.4865 65.8418 37.0857 66.1357 36.7117C71.5863 30.0854 73.3231 24.1805 70.9718 20.1193C68.6206 16.058 62.6623 14.5885 54.1924 16.0046C50.2647 16.6458 45.963 17.9016 41.5009 19.6116C41.3139 19.6918 41.1536 19.7452 40.9666 19.8254C39.4703 20.4132 37.9741 21.0544 36.4778 21.7491C36.3442 21.8026 36.2106 21.8827 36.077 21.9362C33.7258 20.8407 31.4012 19.8521 29.1568 19.0238C28.1683 18.6497 27.1797 18.3291 26.2178 18.0085C28.7026 9.05768 32.4967 3.66048 36.0503 3.66048C39.2031 3.66048 42.5697 7.90877 45.0011 15.1229C46.2302 14.7221 47.4325 14.348 48.6349 14.0007C45.6156 5.37049 41.1536 0 35.9701 0C28.4889 0 22.4771 11.2753 20.4465 27.7074ZM44.3331 26.3448C44.2797 26.2913 44.1995 26.2646 44.1461 26.2379C42.8903 25.5165 41.6078 24.8218 40.3788 24.1538C40.4856 24.1004 40.5925 24.0469 40.6994 24.0202C42.2224 23.379 43.7453 22.7912 45.2149 22.2835C45.7225 22.0965 46.2302 21.9362 46.7111 21.7758C46.9249 22.7644 47.1119 23.753 47.2989 24.7951C47.5127 25.9974 47.673 27.2265 47.8333 28.4823C46.6844 27.7609 45.5088 27.0395 44.3331 26.3448ZM24.6414 24.9287C24.8284 23.8332 25.0154 22.7912 25.2559 21.7758C26.2445 22.0965 27.2331 22.4171 28.2484 22.8179C29.3439 23.2187 30.4661 23.6729 31.615 24.1538C30.3592 24.8218 29.0767 25.5165 27.8209 26.2379C27.7675 26.2646 27.714 26.2913 27.6606 26.3448C26.4582 27.0395 25.2826 27.7609 24.1337 28.4823C24.294 27.2532 24.4543 26.0776 24.6414 24.9287ZM29.6912 51.22C28.7828 50.7123 27.9011 50.178 27.0461 49.6436C25.8704 48.9222 24.7482 48.2008 23.6528 47.4526C23.4925 45.1815 23.4123 42.8036 23.4123 40.3454C23.4123 39.0629 23.439 37.8071 23.4925 36.5781C23.5459 35.4292 23.5993 34.3337 23.6795 33.2382C25.5765 31.9557 27.5804 30.6999 29.6912 29.4709C30.4928 28.9899 31.3211 28.5357 32.1226 28.1082C33.4051 27.4135 34.6876 26.7723 35.9701 26.131C38.0275 27.1196 40.1116 28.2418 42.2491 29.4709C43.1575 30.0052 44.0392 30.5129 44.8942 31.0473C46.0699 31.7687 47.1921 32.4901 48.2875 33.2382C48.4478 35.5093 48.528 37.8873 48.528 40.3454C48.528 41.6279 48.5013 42.8837 48.4478 44.1128C48.3944 45.235 48.341 46.3572 48.2608 47.4526C46.3638 48.7351 44.3599 49.9909 42.2491 51.22C41.688 51.5406 41.1536 51.8612 40.5925 52.1552C39.1764 52.9567 37.7603 53.6781 36.3709 54.3728C36.2373 54.4263 36.1037 54.5064 35.9701 54.5598C33.8861 53.5445 31.7753 52.4223 29.6912 51.22ZM16.4921 42.0554C15.7974 41.4943 15.1562 40.9065 14.5149 40.3454C15.3967 39.5706 16.3051 38.769 17.267 37.9942C18.0685 37.3529 18.8968 36.6849 19.7785 36.0437C19.7251 37.1125 19.6984 38.2079 19.6984 39.3034C19.6984 39.6507 19.6984 39.9981 19.6984 40.3454C19.6984 41.815 19.7251 43.2311 19.7785 44.6472C18.6296 43.7922 17.5074 42.9372 16.4921 42.0554ZM52.2686 41.4142C52.2686 41.0668 52.2686 40.7195 52.2686 40.3454C52.2686 38.8759 52.2419 37.4598 52.1885 36.0437C53.3374 36.8987 54.4329 37.7804 55.4749 38.6354C56.1429 39.1965 56.8108 39.7843 57.4254 40.3454C56.7307 40.96 56.0093 41.6012 55.2611 42.2157C55.1543 42.2959 55.0474 42.4028 54.9405 42.4829C54.0588 43.2043 53.1236 43.9525 52.1618 44.6739C52.2152 43.6051 52.2686 42.5097 52.2686 41.4142ZM24.6681 55.8958C24.4543 54.6934 24.294 53.4644 24.1337 52.2086C25.2826 52.93 26.4315 53.6247 27.6339 54.3194C27.6873 54.3728 27.7675 54.3995 27.8209 54.4263C29.0767 55.1477 30.3325 55.8424 31.615 56.5103C31.615 56.5103 31.5883 56.5103 31.5883 56.537C30.2523 57.0981 28.9431 57.6058 27.6606 58.0867C27.4736 58.1669 27.2865 58.2203 27.0995 58.3005C26.485 58.5142 25.8704 58.728 25.2559 58.915C25.0421 57.9531 24.8551 56.9378 24.6681 55.8958ZM43.7186 57.873C42.5964 57.4455 41.4742 57.018 40.3253 56.537C40.4856 56.4569 40.6459 56.3767 40.8063 56.2966C41.9017 55.7088 42.9972 55.0942 44.1194 54.4797C44.44 54.2927 44.7606 54.1056 45.0546 53.9186C45.9897 53.3575 46.8981 52.7964 47.8066 52.2353C47.6463 53.4377 47.486 54.64 47.2989 55.7622C47.1119 56.8577 46.8981 57.8997 46.6844 58.9417C45.7225 58.5944 44.7339 58.247 43.7186 57.873ZM31.1608 40.3454C31.1608 37.7003 33.325 35.536 35.9701 35.536C38.6153 35.536 40.7795 37.7003 40.7795 40.3454C40.7795 42.9906 38.6153 45.1548 35.9701 45.1548C33.325 45.1548 31.1608 42.9906 31.1608 40.3454Z" fill="url(#paint0_linear_403_525)"/>
<defs>
<linearGradient id="paint0_linear_403_525" x1="6.4545" y1="39.051" x2="69.7508" y2="41.8264" gradientUnits="userSpaceOnUse">
<stop stop-color="white"/>
<stop offset="1" stop-color="white"/>
</linearGradient>
</defs>
</svg>
