<svg width="72" height="72" viewBox="0 0 72 72" fill="none" xmlns="http://www.w3.org/2000/svg">
<g clip-path="url(#clip0_403_494)">
<path d="M16.7991 11.0995L36 0L55.201 11.0995L48.001 14.999L36 8.09856L23.6995 14.999L16.7991 11.0995ZM54.8986 24.9005L47.9981 21.001L36 27.9014L23.6995 21.001L16.7991 24.9005V33.0019L28.8 39.9024V54.0029L35.7005 58.2019L42.601 54.0029V40.2019L54.6019 33.3014V24.9005H54.8986ZM54.8986 47.0995V39.001L48.001 43.2V50.999L54.8986 47.0995ZM59.9991 49.801L47.9981 56.7014V64.8L67.1991 53.7005V31.5014L59.9991 36V49.801ZM53.1015 18L60.0019 22.199V30.3005L66.9024 26.1014V18L60.0019 13.801L53.1015 18ZM28.8 59.6995V67.7981L35.7005 71.9971L42.601 67.7981V59.6995L35.7005 63.8985L28.8 59.6995ZM16.7991 47.0995L23.6995 50.999V42.9005L16.7991 38.7014V47.0995ZM28.8 18L35.7005 22.199L42.9005 18L36 13.801L28.8 18ZM11.6986 22.199L18.8986 18L11.6986 13.801L4.80098 18V26.0986L11.7015 30.2976V22.199H11.6986ZM11.6986 36L4.7981 31.801V54L23.9991 65.0995V57.001L11.9981 50.1005V36H11.6986Z" fill="#F0B90B"/>
</g>
<defs>
<clipPath id="clip0_403_494">
<rect width="72" height="72" fill="white"/>
</clipPath>
</defs>
</svg>
