<svg width="68" height="68" viewBox="0 0 68 68" fill="none" xmlns="http://www.w3.org/2000/svg">
<path d="M54.4906 3.4717L40.3019 24.5283C39.3208 25.9623 41.2075 27.6981 42.566 26.4906L56.5283 14.3396C56.9057 14.0377 57.434 14.2642 57.434 14.7925V52.7547C57.434 53.283 56.7547 53.5094 56.4528 53.1321L14.1887 2.56604C12.8302 0.905661 10.8679 0 8.67924 0H7.16981C3.24528 0 0 3.24528 0 7.24528V60.6792C0 64.6792 3.24528 67.9245 7.24528 67.9245C9.73585 67.9245 12.0755 66.6415 13.434 64.4528L27.6226 43.3962C28.6038 41.9623 26.717 40.2264 25.3585 41.434L11.3962 53.5094C11.0189 53.8113 10.4906 53.5849 10.4906 53.0566V15.1698C10.4906 14.6415 11.1698 14.4151 11.4717 14.7925L53.7358 65.3585C55.0943 67.0189 57.1321 67.9245 59.2453 67.9245H60.7547C64.7547 67.9245 68 64.6792 68 60.6792V7.24528C68 3.24528 64.7547 0 60.7547 0C58.1887 0 55.8491 1.28302 54.4906 3.4717Z" fill="white"/>
</svg>
