<svg width="72" height="69" viewBox="0 0 72 69" fill="none" xmlns="http://www.w3.org/2000/svg">
<path d="M36.0012 14.4362C42.8537 14.4362 48.4087 11.2045 48.4087 7.21809C48.4087 3.23165 42.8537 0 36.0012 0C29.1488 0 23.5938 3.23165 23.5938 7.21809C23.5938 11.2045 29.1488 14.4362 36.0012 14.4362Z" fill="#E6007A"/>
<path d="M36.0012 68.8233C42.8537 68.8233 48.4087 65.5916 48.4087 61.6052C48.4087 57.6187 42.8537 54.3871 36.0012 54.3871C29.1488 54.3871 23.5938 57.6187 23.5938 61.6052C23.5938 65.5916 29.1488 68.8233 36.0012 68.8233Z" fill="#E6007A"/>
<path d="M18.7106 24.4277C22.1368 18.4919 22.1146 12.063 18.6609 10.0685C15.2072 8.07388 9.62997 11.2689 6.20374 17.2047C2.77751 23.1406 2.79975 29.5694 6.25341 31.564C9.70707 33.5586 15.2843 30.3635 18.7106 24.4277Z" fill="#E6007A"/>
<path d="M65.7934 51.618C69.2196 45.6822 69.1993 39.2544 65.748 37.2612C62.2966 35.268 56.7213 38.4641 53.295 44.3999C49.8688 50.3358 49.8892 56.7635 53.3405 58.7568C56.7918 60.75 62.3672 57.5539 65.7934 51.618Z" fill="#E6007A"/>
<path d="M18.6626 58.755C22.1163 56.7605 22.1385 50.3316 18.7123 44.3958C15.286 38.4599 9.70878 35.2649 6.25512 37.2595C2.80146 39.2541 2.77922 45.6829 6.20545 51.6187C9.63168 57.5546 15.2089 60.7496 18.6626 58.755Z" fill="#E6007A"/>
<path d="M65.7509 31.5656C69.2022 29.5724 69.2226 23.1446 65.7963 17.2088C62.3701 11.2729 56.7947 8.07681 53.3434 10.07C49.8921 12.0633 49.8717 18.491 53.298 24.4269C56.7242 30.3627 62.2996 33.5588 65.7509 31.5656Z" fill="#E6007A"/>
</svg>
