<svg width="72" height="82" viewBox="0 0 72 82" fill="none" xmlns="http://www.w3.org/2000/svg">
<path d="M36.0001 67.0913C23.6368 67.0913 13.5969 57.0515 13.5969 44.6881C13.5969 32.669 33.8774 11.4419 34.738 10.5527L35.7993 9.43396L36.8894 10.524C37.7786 11.4132 58.4033 32.6403 58.4033 44.6595C58.4033 57.0515 48.3635 67.0913 36.0001 67.0913ZM35.828 13.7654C34.0495 15.6873 30.3204 19.8467 26.62 24.7232C20.0511 33.3862 16.5802 40.2706 16.5802 44.6595C16.5802 55.3591 25.3005 64.0794 36.0001 64.0794C46.6997 64.0794 55.42 55.3591 55.42 44.6595C55.42 40.2706 51.8917 33.3862 45.2081 24.7232C41.4503 19.8754 37.6352 15.6873 35.828 13.7654Z" fill="url(#paint0_linear_403_519)"/>
<path d="M36 74.2626C19.6781 74.2626 6.42554 60.9813 6.42554 44.6881C6.42554 28.7391 28.6853 6.47932 29.6319 5.5614C30.2056 4.98769 31.1809 4.98769 31.7546 5.5614C32.3283 6.1351 32.3283 7.1104 31.7546 7.68411C31.5251 7.91359 9.43749 30.0012 9.43749 44.6881C9.43749 59.3463 21.3706 71.2793 36.0287 71.2793C50.6869 71.2793 62.62 59.3463 62.62 44.6881C62.62 38.6642 58.7188 30.3455 51.318 20.5638C45.6383 13.0769 39.9299 7.39725 39.8725 7.33988C39.2702 6.76618 39.2702 5.81956 39.8725 5.21717C40.4463 4.61478 41.3929 4.61478 41.9953 5.21717C42.9706 6.16379 65.6319 28.7104 65.6319 44.6881C65.5745 60.9813 52.322 74.2626 36 74.2626Z" fill="url(#paint1_linear_403_519)"/>
<path d="M36 81.4339C16.1498 81.4339 0 65.2841 0 45.4339C0 37.2299 4.13068 27.1327 12.2486 15.4578C18.2438 6.85226 24.1243 0.713611 24.3825 0.455444C24.9562 -0.146946 25.9028 -0.146946 26.5052 0.426759C27.1076 1.00046 27.1076 1.94708 26.5339 2.54947C26.4765 2.60684 20.5386 8.80285 14.6869 17.2076C7.02789 28.1941 2.98327 37.9471 2.98327 45.4339C2.98327 63.6204 17.7849 78.4507 36 78.4507C54.2151 78.4507 69.0167 63.6491 69.0167 45.4339C69.0167 37.9471 64.9434 28.1941 57.2271 17.2076C51.3179 8.80285 45.3227 2.60684 45.2653 2.54947C44.6916 1.94708 44.6916 1.00046 45.294 0.426759C45.8964 -0.146946 46.843 -0.146946 47.4167 0.455444C48.4207 1.48811 72 25.9853 72 45.4339C72 65.2841 55.8502 81.4339 36 81.4339Z" fill="url(#paint2_linear_403_519)"/>
<defs>
<linearGradient id="paint0_linear_403_519" x1="36.0001" y1="67.0878" x2="36.0001" y2="9.43043" gradientUnits="userSpaceOnUse">
<stop stop-color="#05AAC5"/>
<stop offset="1" stop-color="#71E0EC"/>
</linearGradient>
<linearGradient id="paint1_linear_403_519" x1="36.0287" y1="74.2591" x2="36.0287" y2="4.76188" gradientUnits="userSpaceOnUse">
<stop stop-color="#05AAC5"/>
<stop offset="1" stop-color="#71E0EC"/>
</linearGradient>
<linearGradient id="paint2_linear_403_519" x1="36" y1="81.4304" x2="36" y2="-0.00351904" gradientUnits="userSpaceOnUse">
<stop stop-color="#05AAC5"/>
<stop offset="1" stop-color="#71E0EC"/>
</linearGradient>
</defs>
</svg>
