<svg width="72" height="72" viewBox="0 0 72 72" fill="none" xmlns="http://www.w3.org/2000/svg">
<path d="M35.9999 32.6038C45.0032 32.6038 52.3018 25.3052 52.3018 16.3019C52.3018 7.2986 45.0032 0 35.9999 0C26.9966 0 19.698 7.2986 19.698 16.3019C19.698 25.3052 26.9966 32.6038 35.9999 32.6038Z" fill="#88BDF3"/>
<path d="M35.9999 72C45.0032 72 52.3018 64.7014 52.3018 55.6981C52.3018 46.6948 45.0032 39.3962 35.9999 39.3962C26.9966 39.3962 19.698 46.6948 19.698 55.6981C19.698 64.7014 26.9966 72 35.9999 72Z" fill="#3075EE"/>
<path d="M55.6981 52.3019C64.7014 52.3019 72 45.0033 72 36C72 26.9967 64.7014 19.6981 55.6981 19.6981C46.6948 19.6981 39.3962 26.9967 39.3962 36C39.3962 45.0033 46.6948 52.3019 55.6981 52.3019Z" fill="#5795F1"/>
<path d="M16.3019 52.3019C25.3052 52.3019 32.6038 45.0033 32.6038 36C32.6038 26.9967 25.3052 19.6981 16.3019 19.6981C7.2986 19.6981 0 26.9967 0 36C0 45.0033 7.2986 52.3019 16.3019 52.3019Z" fill="#205FEC"/>
<path d="M32.1623 32.1623C29.2566 31.4557 26.6012 29.9636 24.4867 27.8491C22.3723 25.7346 20.8801 23.0793 20.1736 20.1736C23.0741 20.8909 25.7237 22.3866 27.8365 24.4994C29.9493 26.6121 31.445 29.2617 32.1623 32.1623Z" fill="#134BEF"/>
<path d="M20.1396 51.8604C20.8462 48.9547 22.3383 46.2994 24.4528 44.1849C26.5673 42.0704 29.2227 40.5782 32.1283 39.8717C31.411 42.7722 29.9153 45.4218 27.8026 47.5346C25.6898 49.6474 23.0402 51.1431 20.1396 51.8604Z" fill="#0932E8"/>
<path d="M39.8376 39.8378C42.7433 40.5443 45.3987 42.0364 47.5132 44.1509C49.6276 46.2654 51.1198 48.9208 51.8263 51.8264C48.9258 51.1092 46.2762 49.6134 44.1634 47.5007C42.0506 45.3879 40.5549 42.7383 39.8376 39.8378Z" fill="#164BEA"/>
<path d="M51.8605 20.1396C51.154 23.0453 49.6618 25.7007 47.5473 27.8152C45.4329 29.9297 42.7775 31.4218 39.8718 32.1283C40.5891 29.2278 42.0848 26.5782 44.1976 24.4654C46.3104 22.3526 48.96 20.8569 51.8605 20.1396Z" fill="#3170F1"/>
</svg>
